solid ASCII
  facet normal -0.000000e+00 -9.961947e-01 -8.715574e-02
    outer loop
      vertex   1.410000e-02 1.472328e-03 2.596112e-04
      vertex   1.400000e-02 1.472328e-03 2.596112e-04
      vertex   1.410000e-02 1.495041e-03 -1.830898e-19
    endloop
  endfacet
  facet normal -0.000000e+00 -9.961947e-01 -8.715574e-02
    outer loop
      vertex   1.410000e-02 1.495041e-03 -1.830898e-19
      vertex   1.400000e-02 1.472328e-03 2.596112e-04
      vertex   1.400000e-02 1.495041e-03 -1.830898e-19
    endloop
  endfacet
  facet normal 0.000000e+00 -9.961947e-01 8.715574e-02
    outer loop
      vertex   1.410000e-02 1.495041e-03 -1.830898e-19
      vertex   1.400000e-02 1.495041e-03 -1.830898e-19
      vertex   1.410000e-02 1.472328e-03 -2.596112e-04
    endloop
  endfacet
  facet normal 0.000000e+00 -9.961947e-01 8.715574e-02
    outer loop
      vertex   1.410000e-02 1.472328e-03 -2.596112e-04
      vertex   1.400000e-02 1.495041e-03 -1.830898e-19
      vertex   1.400000e-02 1.472328e-03 -2.596112e-04
    endloop
  endfacet
  facet normal 0.000000e+00 -9.659258e-01 2.588190e-01
    outer loop
      vertex   1.410000e-02 1.472328e-03 -2.596112e-04
      vertex   1.400000e-02 1.472328e-03 -2.596112e-04
      vertex   1.410000e-02 1.404879e-03 -5.113343e-04
    endloop
  endfacet
  facet normal 4.108447e-16 -9.659258e-01 2.588190e-01
    outer loop
      vertex   1.410000e-02 1.404879e-03 -5.113343e-04
      vertex   1.400000e-02 1.472328e-03 -2.596112e-04
      vertex   1.400000e-02 1.404879e-03 -5.113343e-04
    endloop
  endfacet
  facet normal -7.839801e-16 -9.063078e-01 4.226183e-01
    outer loop
      vertex   1.410000e-02 1.404879e-03 -5.113343e-04
      vertex   1.400000e-02 1.404879e-03 -5.113343e-04
      vertex   1.410000e-02 1.294744e-03 -7.475207e-04
    endloop
  endfacet
  facet normal -7.839801e-16 -9.063078e-01 4.226183e-01
    outer loop
      vertex   1.410000e-02 1.294744e-03 -7.475207e-04
      vertex   1.400000e-02 1.404879e-03 -5.113343e-04
      vertex   1.400000e-02 1.294744e-03 -7.475207e-04
    endloop
  endfacet
  facet normal -1.954984e-15 -8.191520e-01 5.735764e-01
    outer loop
      vertex   1.410000e-02 1.294744e-03 -7.475207e-04
      vertex   1.400000e-02 1.294744e-03 -7.475207e-04
      vertex   1.410000e-02 1.145268e-03 -9.609941e-04
    endloop
  endfacet
  facet normal 0.000000e+00 -8.191520e-01 5.735764e-01
    outer loop
      vertex   1.410000e-02 1.145268e-03 -9.609941e-04
      vertex   1.400000e-02 1.294744e-03 -7.475207e-04
      vertex   1.400000e-02 1.145268e-03 -9.609941e-04
    endloop
  endfacet
  facet normal 0.000000e+00 -7.071068e-01 7.071068e-01
    outer loop
      vertex   1.410000e-02 1.145268e-03 -9.609941e-04
      vertex   1.400000e-02 1.145268e-03 -9.609941e-04
      vertex   1.410000e-02 9.609941e-04 -1.145268e-03
    endloop
  endfacet
  facet normal 0.000000e+00 -7.071068e-01 7.071068e-01
    outer loop
      vertex   1.410000e-02 9.609941e-04 -1.145268e-03
      vertex   1.400000e-02 1.145268e-03 -9.609941e-04
      vertex   1.400000e-02 9.609941e-04 -1.145268e-03
    endloop
  endfacet
  facet normal 0.000000e+00 -5.735764e-01 8.191520e-01
    outer loop
      vertex   1.410000e-02 9.609941e-04 -1.145268e-03
      vertex   1.400000e-02 9.609941e-04 -1.145268e-03
      vertex   1.410000e-02 7.475207e-04 -1.294744e-03
    endloop
  endfacet
  facet normal 0.000000e+00 -5.735764e-01 8.191520e-01
    outer loop
      vertex   1.410000e-02 7.475207e-04 -1.294744e-03
      vertex   1.400000e-02 9.609941e-04 -1.145268e-03
      vertex   1.400000e-02 7.475207e-04 -1.294744e-03
    endloop
  endfacet
  facet normal 0.000000e+00 -4.226183e-01 9.063078e-01
    outer loop
      vertex   1.410000e-02 7.475207e-04 -1.294744e-03
      vertex   1.400000e-02 7.475207e-04 -1.294744e-03
      vertex   1.410000e-02 5.113343e-04 -1.404879e-03
    endloop
  endfacet
  facet normal -1.181262e-15 -4.226183e-01 9.063078e-01
    outer loop
      vertex   1.410000e-02 5.113343e-04 -1.404879e-03
      vertex   1.400000e-02 7.475207e-04 -1.294744e-03
      vertex   1.400000e-02 5.113343e-04 -1.404879e-03
    endloop
  endfacet
  facet normal -2.505362e-15 -2.588190e-01 9.659258e-01
    outer loop
      vertex   1.410000e-02 5.113343e-04 -1.404879e-03
      vertex   1.400000e-02 5.113343e-04 -1.404879e-03
      vertex   1.410000e-02 2.596112e-04 -1.472328e-03
    endloop
  endfacet
  facet normal -1.112375e-15 -2.588190e-01 9.659258e-01
    outer loop
      vertex   1.410000e-02 2.596112e-04 -1.472328e-03
      vertex   1.400000e-02 5.113343e-04 -1.404879e-03
      vertex   1.400000e-02 2.596112e-04 -1.472328e-03
    endloop
  endfacet
  facet normal -1.829422e-15 -8.715574e-02 9.961947e-01
    outer loop
      vertex   1.410000e-02 2.596112e-04 -1.472328e-03
      vertex   1.400000e-02 2.596112e-04 -1.472328e-03
      vertex   1.410000e-02 -9.154488e-20 -1.495041e-03
    endloop
  endfacet
  facet normal 0.000000e+00 -8.715574e-02 9.961947e-01
    outer loop
      vertex   1.410000e-02 -9.154488e-20 -1.495041e-03
      vertex   1.400000e-02 2.596112e-04 -1.472328e-03
      vertex   1.400000e-02 -9.154488e-20 -1.495041e-03
    endloop
  endfacet
  facet normal 0.000000e+00 8.715574e-02 9.961947e-01
    outer loop
      vertex   1.410000e-02 -9.154488e-20 -1.495041e-03
      vertex   1.400000e-02 -9.154488e-20 -1.495041e-03
      vertex   1.410000e-02 -2.596112e-04 -1.472328e-03
    endloop
  endfacet
  facet normal -1.876670e-15 8.715574e-02 9.961947e-01
    outer loop
      vertex   1.410000e-02 -2.596112e-04 -1.472328e-03
      vertex   1.400000e-02 -9.154488e-20 -1.495041e-03
      vertex   1.400000e-02 -2.596112e-04 -1.472328e-03
    endloop
  endfacet
  facet normal -1.252681e-15 2.588190e-01 9.659258e-01
    outer loop
      vertex   1.410000e-02 -2.596112e-04 -1.472328e-03
      vertex   1.400000e-02 -2.596112e-04 -1.472328e-03
      vertex   1.410000e-02 -5.113343e-04 -1.404879e-03
    endloop
  endfacet
  facet normal 4.108447e-16 2.588190e-01 9.659258e-01
    outer loop
      vertex   1.410000e-02 -5.113343e-04 -1.404879e-03
      vertex   1.400000e-02 -2.596112e-04 -1.472328e-03
      vertex   1.400000e-02 -5.113343e-04 -1.404879e-03
    endloop
  endfacet
  facet normal -7.839801e-16 4.226183e-01 9.063078e-01
    outer loop
      vertex   1.410000e-02 -5.113343e-04 -1.404879e-03
      vertex   1.400000e-02 -5.113343e-04 -1.404879e-03
      vertex   1.410000e-02 -7.475207e-04 -1.294744e-03
    endloop
  endfacet
  facet normal -7.839801e-16 4.226183e-01 9.063078e-01
    outer loop
      vertex   1.410000e-02 -7.475207e-04 -1.294744e-03
      vertex   1.400000e-02 -5.113343e-04 -1.404879e-03
      vertex   1.400000e-02 -7.475207e-04 -1.294744e-03
    endloop
  endfacet
  facet normal -1.954984e-15 5.735764e-01 8.191520e-01
    outer loop
      vertex   1.410000e-02 -7.475207e-04 -1.294744e-03
      vertex   1.400000e-02 -7.475207e-04 -1.294744e-03
      vertex   1.410000e-02 -9.609941e-04 -1.145268e-03
    endloop
  endfacet
  facet normal 0.000000e+00 5.735764e-01 8.191520e-01
    outer loop
      vertex   1.410000e-02 -9.609941e-04 -1.145268e-03
      vertex   1.400000e-02 -7.475207e-04 -1.294744e-03
      vertex   1.400000e-02 -9.609941e-04 -1.145268e-03
    endloop
  endfacet
  facet normal 0.000000e+00 7.071068e-01 7.071068e-01
    outer loop
      vertex   1.410000e-02 -9.609941e-04 -1.145268e-03
      vertex   1.400000e-02 -9.609941e-04 -1.145268e-03
      vertex   1.410000e-02 -1.145268e-03 -9.609941e-04
    endloop
  endfacet
  facet normal 0.000000e+00 7.071068e-01 7.071068e-01
    outer loop
      vertex   1.410000e-02 -1.145268e-03 -9.609941e-04
      vertex   1.400000e-02 -9.609941e-04 -1.145268e-03
      vertex   1.400000e-02 -1.145268e-03 -9.609941e-04
    endloop
  endfacet
  facet normal 0.000000e+00 8.191520e-01 5.735764e-01
    outer loop
      vertex   1.410000e-02 -1.145268e-03 -9.609941e-04
      vertex   1.400000e-02 -1.145268e-03 -9.609941e-04
      vertex   1.410000e-02 -1.294744e-03 -7.475207e-04
    endloop
  endfacet
  facet normal 0.000000e+00 8.191520e-01 5.735764e-01
    outer loop
      vertex   1.410000e-02 -1.294744e-03 -7.475207e-04
      vertex   1.400000e-02 -1.145268e-03 -9.609941e-04
      vertex   1.400000e-02 -1.294744e-03 -7.475207e-04
    endloop
  endfacet
  facet normal 0.000000e+00 9.063078e-01 4.226183e-01
    outer loop
      vertex   1.410000e-02 -1.294744e-03 -7.475207e-04
      vertex   1.400000e-02 -1.294744e-03 -7.475207e-04
      vertex   1.410000e-02 -1.404879e-03 -5.113343e-04
    endloop
  endfacet
  facet normal 0.000000e+00 9.063078e-01 4.226183e-01
    outer loop
      vertex   1.410000e-02 -1.404879e-03 -5.113343e-04
      vertex   1.400000e-02 -1.294744e-03 -7.475207e-04
      vertex   1.400000e-02 -1.404879e-03 -5.113343e-04
    endloop
  endfacet
  facet normal 0.000000e+00 9.659258e-01 2.588190e-01
    outer loop
      vertex   1.410000e-02 -1.404879e-03 -5.113343e-04
      vertex   1.400000e-02 -1.404879e-03 -5.113343e-04
      vertex   1.410000e-02 -1.472328e-03 -2.596112e-04
    endloop
  endfacet
  facet normal -4.108447e-16 9.659258e-01 2.588190e-01
    outer loop
      vertex   1.410000e-02 -1.472328e-03 -2.596112e-04
      vertex   1.400000e-02 -1.404879e-03 -5.113343e-04
      vertex   1.400000e-02 -1.472328e-03 -2.596112e-04
    endloop
  endfacet
  facet normal -1.593186e-15 9.961947e-01 8.715574e-02
    outer loop
      vertex   1.410000e-02 -1.472328e-03 -2.596112e-04
      vertex   1.400000e-02 -1.472328e-03 -2.596112e-04
      vertex   1.410000e-02 -1.495041e-03 0.000000e+00
    endloop
  endfacet
  facet normal 0.000000e+00 9.961947e-01 8.715574e-02
    outer loop
      vertex   1.410000e-02 -1.495041e-03 0.000000e+00
      vertex   1.400000e-02 -1.472328e-03 -2.596112e-04
      vertex   1.400000e-02 -1.495041e-03 0.000000e+00
    endloop
  endfacet
  facet normal 0.000000e+00 9.961947e-01 -8.715574e-02
    outer loop
      vertex   1.410000e-02 -1.495041e-03 0.000000e+00
      vertex   1.400000e-02 -1.495041e-03 0.000000e+00
      vertex   1.410000e-02 -1.472328e-03 2.596112e-04
    endloop
  endfacet
  facet normal 1.593186e-15 9.961947e-01 -8.715574e-02
    outer loop
      vertex   1.410000e-02 -1.472328e-03 2.596112e-04
      vertex   1.400000e-02 -1.495041e-03 0.000000e+00
      vertex   1.400000e-02 -1.472328e-03 2.596112e-04
    endloop
  endfacet
  facet normal 4.108447e-16 9.659258e-01 -2.588190e-01
    outer loop
      vertex   1.410000e-02 -1.472328e-03 2.596112e-04
      vertex   1.400000e-02 -1.472328e-03 2.596112e-04
      vertex   1.410000e-02 -1.404879e-03 5.113343e-04
    endloop
  endfacet
  facet normal 0.000000e+00 9.659258e-01 -2.588190e-01
    outer loop
      vertex   1.410000e-02 -1.404879e-03 5.113343e-04
      vertex   1.400000e-02 -1.472328e-03 2.596112e-04
      vertex   1.400000e-02 -1.404879e-03 5.113343e-04
    endloop
  endfacet
  facet normal 0.000000e+00 9.063078e-01 -4.226183e-01
    outer loop
      vertex   1.410000e-02 -1.404879e-03 5.113343e-04
      vertex   1.400000e-02 -1.404879e-03 5.113343e-04
      vertex   1.410000e-02 -1.294744e-03 7.475207e-04
    endloop
  endfacet
  facet normal 0.000000e+00 9.063078e-01 -4.226183e-01
    outer loop
      vertex   1.410000e-02 -1.294744e-03 7.475207e-04
      vertex   1.400000e-02 -1.404879e-03 5.113343e-04
      vertex   1.400000e-02 -1.294744e-03 7.475207e-04
    endloop
  endfacet
  facet normal 0.000000e+00 8.191520e-01 -5.735764e-01
    outer loop
      vertex   1.410000e-02 -1.294744e-03 7.475207e-04
      vertex   1.400000e-02 -1.294744e-03 7.475207e-04
      vertex   1.410000e-02 -1.145268e-03 9.609941e-04
    endloop
  endfacet
  facet normal 0.000000e+00 8.191520e-01 -5.735764e-01
    outer loop
      vertex   1.410000e-02 -1.145268e-03 9.609941e-04
      vertex   1.400000e-02 -1.294744e-03 7.475207e-04
      vertex   1.400000e-02 -1.145268e-03 9.609941e-04
    endloop
  endfacet
  facet normal 0.000000e+00 7.071068e-01 -7.071068e-01
    outer loop
      vertex   1.410000e-02 -1.145268e-03 9.609941e-04
      vertex   1.400000e-02 -1.145268e-03 9.609941e-04
      vertex   1.410000e-02 -9.609941e-04 1.145268e-03
    endloop
  endfacet
  facet normal 0.000000e+00 7.071068e-01 -7.071068e-01
    outer loop
      vertex   1.410000e-02 -9.609941e-04 1.145268e-03
      vertex   1.400000e-02 -1.145268e-03 9.609941e-04
      vertex   1.400000e-02 -9.609941e-04 1.145268e-03
    endloop
  endfacet
  facet normal 0.000000e+00 5.735764e-01 -8.191520e-01
    outer loop
      vertex   1.410000e-02 -9.609941e-04 1.145268e-03
      vertex   1.400000e-02 -9.609941e-04 1.145268e-03
      vertex   1.410000e-02 -7.475207e-04 1.294744e-03
    endloop
  endfacet
  facet normal 1.954984e-15 5.735764e-01 -8.191520e-01
    outer loop
      vertex   1.410000e-02 -7.475207e-04 1.294744e-03
      vertex   1.400000e-02 -9.609941e-04 1.145268e-03
      vertex   1.400000e-02 -7.475207e-04 1.294744e-03
    endloop
  endfacet
  facet normal 7.839801e-16 4.226183e-01 -9.063078e-01
    outer loop
      vertex   1.410000e-02 -7.475207e-04 1.294744e-03
      vertex   1.400000e-02 -7.475207e-04 1.294744e-03
      vertex   1.410000e-02 -5.113343e-04 1.404879e-03
    endloop
  endfacet
  facet normal 7.839801e-16 4.226183e-01 -9.063078e-01
    outer loop
      vertex   1.410000e-02 -5.113343e-04 1.404879e-03
      vertex   1.400000e-02 -7.475207e-04 1.294744e-03
      vertex   1.400000e-02 -5.113343e-04 1.404879e-03
    endloop
  endfacet
  facet normal -4.108447e-16 2.588190e-01 -9.659258e-01
    outer loop
      vertex   1.410000e-02 -5.113343e-04 1.404879e-03
      vertex   1.400000e-02 -5.113343e-04 1.404879e-03
      vertex   1.410000e-02 -2.596112e-04 1.472328e-03
    endloop
  endfacet
  facet normal 1.252681e-15 2.588190e-01 -9.659258e-01
    outer loop
      vertex   1.410000e-02 -2.596112e-04 1.472328e-03
      vertex   1.400000e-02 -5.113343e-04 1.404879e-03
      vertex   1.400000e-02 -2.596112e-04 1.472328e-03
    endloop
  endfacet
  facet normal 1.876670e-15 8.715574e-02 -9.961947e-01
    outer loop
      vertex   1.410000e-02 -2.596112e-04 1.472328e-03
      vertex   1.400000e-02 -2.596112e-04 1.472328e-03
      vertex   1.410000e-02 -9.154488e-20 1.495041e-03
    endloop
  endfacet
  facet normal 0.000000e+00 8.715574e-02 -9.961947e-01
    outer loop
      vertex   1.410000e-02 -9.154488e-20 1.495041e-03
      vertex   1.400000e-02 -2.596112e-04 1.472328e-03
      vertex   1.400000e-02 -9.154488e-20 1.495041e-03
    endloop
  endfacet
  facet normal -0.000000e+00 -8.715574e-02 -9.961947e-01
    outer loop
      vertex   1.410000e-02 -9.154488e-20 1.495041e-03
      vertex   1.400000e-02 -9.154488e-20 1.495041e-03
      vertex   1.410000e-02 2.596112e-04 1.472328e-03
    endloop
  endfacet
  facet normal 1.829422e-15 -8.715574e-02 -9.961947e-01
    outer loop
      vertex   1.410000e-02 2.596112e-04 1.472328e-03
      vertex   1.400000e-02 -9.154488e-20 1.495041e-03
      vertex   1.400000e-02 2.596112e-04 1.472328e-03
    endloop
  endfacet
  facet normal 1.112375e-15 -2.588190e-01 -9.659258e-01
    outer loop
      vertex   1.410000e-02 2.596112e-04 1.472328e-03
      vertex   1.400000e-02 2.596112e-04 1.472328e-03
      vertex   1.410000e-02 5.113343e-04 1.404879e-03
    endloop
  endfacet
  facet normal 2.505362e-15 -2.588190e-01 -9.659258e-01
    outer loop
      vertex   1.410000e-02 5.113343e-04 1.404879e-03
      vertex   1.400000e-02 2.596112e-04 1.472328e-03
      vertex   1.400000e-02 5.113343e-04 1.404879e-03
    endloop
  endfacet
  facet normal 1.181262e-15 -4.226183e-01 -9.063078e-01
    outer loop
      vertex   1.410000e-02 5.113343e-04 1.404879e-03
      vertex   1.400000e-02 5.113343e-04 1.404879e-03
      vertex   1.410000e-02 7.475207e-04 1.294744e-03
    endloop
  endfacet
  facet normal -0.000000e+00 -4.226183e-01 -9.063078e-01
    outer loop
      vertex   1.410000e-02 7.475207e-04 1.294744e-03
      vertex   1.400000e-02 5.113343e-04 1.404879e-03
      vertex   1.400000e-02 7.475207e-04 1.294744e-03
    endloop
  endfacet
  facet normal -0.000000e+00 -5.735764e-01 -8.191520e-01
    outer loop
      vertex   1.410000e-02 7.475207e-04 1.294744e-03
      vertex   1.400000e-02 7.475207e-04 1.294744e-03
      vertex   1.410000e-02 9.609941e-04 1.145268e-03
    endloop
  endfacet
  facet normal -0.000000e+00 -5.735764e-01 -8.191520e-01
    outer loop
      vertex   1.410000e-02 9.609941e-04 1.145268e-03
      vertex   1.400000e-02 7.475207e-04 1.294744e-03
      vertex   1.400000e-02 9.609941e-04 1.145268e-03
    endloop
  endfacet
  facet normal -0.000000e+00 -7.071068e-01 -7.071068e-01
    outer loop
      vertex   1.410000e-02 9.609941e-04 1.145268e-03
      vertex   1.400000e-02 9.609941e-04 1.145268e-03
      vertex   1.410000e-02 1.145268e-03 9.609941e-04
    endloop
  endfacet
  facet normal -0.000000e+00 -7.071068e-01 -7.071068e-01
    outer loop
      vertex   1.410000e-02 1.145268e-03 9.609941e-04
      vertex   1.400000e-02 9.609941e-04 1.145268e-03
      vertex   1.400000e-02 1.145268e-03 9.609941e-04
    endloop
  endfacet
  facet normal -0.000000e+00 -8.191520e-01 -5.735764e-01
    outer loop
      vertex   1.410000e-02 1.145268e-03 9.609941e-04
      vertex   1.400000e-02 1.145268e-03 9.609941e-04
      vertex   1.410000e-02 1.294744e-03 7.475207e-04
    endloop
  endfacet
  facet normal 1.954984e-15 -8.191520e-01 -5.735764e-01
    outer loop
      vertex   1.410000e-02 1.294744e-03 7.475207e-04
      vertex   1.400000e-02 1.145268e-03 9.609941e-04
      vertex   1.400000e-02 1.294744e-03 7.475207e-04
    endloop
  endfacet
  facet normal 7.839801e-16 -9.063078e-01 -4.226183e-01
    outer loop
      vertex   1.410000e-02 1.294744e-03 7.475207e-04
      vertex   1.400000e-02 1.294744e-03 7.475207e-04
      vertex   1.410000e-02 1.404879e-03 5.113343e-04
    endloop
  endfacet
  facet normal 7.839801e-16 -9.063078e-01 -4.226183e-01
    outer loop
      vertex   1.410000e-02 1.404879e-03 5.113343e-04
      vertex   1.400000e-02 1.294744e-03 7.475207e-04
      vertex   1.400000e-02 1.404879e-03 5.113343e-04
    endloop
  endfacet
  facet normal -4.108447e-16 -9.659258e-01 -2.588190e-01
    outer loop
      vertex   1.410000e-02 1.404879e-03 5.113343e-04
      vertex   1.400000e-02 1.404879e-03 5.113343e-04
      vertex   1.410000e-02 1.472328e-03 2.596112e-04
    endloop
  endfacet
  facet normal -0.000000e+00 -9.659258e-01 -2.588190e-01
    outer loop
      vertex   1.410000e-02 1.472328e-03 2.596112e-04
      vertex   1.400000e-02 1.404879e-03 5.113343e-04
      vertex   1.400000e-02 1.472328e-03 2.596112e-04
    endloop
  endfacet
  facet normal 0.000000e+00 1.000000e+00 0.000000e+00
    outer loop
      vertex   1.410000e-02 -7.900000e-03 -7.900000e-03
      vertex   1.410000e-02 -7.900000e-03 7.900000e-03
      vertex   2.990000e-02 -7.900000e-03 -7.900000e-03
    endloop
  endfacet
  facet normal 0.000000e+00 1.000000e+00 -0.000000e+00
    outer loop
      vertex   2.990000e-02 -7.900000e-03 -7.900000e-03
      vertex   1.410000e-02 -7.900000e-03 7.900000e-03
      vertex   2.990000e-02 -7.900000e-03 7.900000e-03
    endloop
  endfacet
  facet normal 0.000000e+00 0.000000e+00 1.000000e+00
    outer loop
      vertex   1.410000e-02 -7.900000e-03 -7.900000e-03
      vertex   2.990000e-02 -7.900000e-03 -7.900000e-03
      vertex   1.410000e-02 7.900000e-03 -7.900000e-03
    endloop
  endfacet
  facet normal -0.000000e+00 0.000000e+00 1.000000e+00
    outer loop
      vertex   1.410000e-02 7.900000e-03 -7.900000e-03
      vertex   2.990000e-02 -7.900000e-03 -7.900000e-03
      vertex   2.990000e-02 7.900000e-03 -7.900000e-03
    endloop
  endfacet
  facet normal -1.000000e+00 0.000000e+00 0.000000e+00
    outer loop
      vertex   2.990000e-02 -7.900000e-03 -7.900000e-03
      vertex   2.990000e-02 -7.900000e-03 7.900000e-03
      vertex   2.990000e-02 7.900000e-03 -7.900000e-03
    endloop
  endfacet
  facet normal -1.000000e+00 0.000000e+00 0.000000e+00
    outer loop
      vertex   2.990000e-02 7.900000e-03 -7.900000e-03
      vertex   2.990000e-02 -7.900000e-03 7.900000e-03
      vertex   2.990000e-02 7.900000e-03 7.900000e-03
    endloop
  endfacet
  facet normal 0.000000e+00 0.000000e+00 -1.000000e+00
    outer loop
      vertex   2.990000e-02 -7.900000e-03 7.900000e-03
      vertex   1.410000e-02 -7.900000e-03 7.900000e-03
      vertex   2.990000e-02 7.900000e-03 7.900000e-03
    endloop
  endfacet
  facet normal -0.000000e+00 0.000000e+00 -1.000000e+00
    outer loop
      vertex   2.990000e-02 7.900000e-03 7.900000e-03
      vertex   1.410000e-02 -7.900000e-03 7.900000e-03
      vertex   1.410000e-02 7.900000e-03 7.900000e-03
    endloop
  endfacet
  facet normal 1.000000e+00 -0.000000e+00 0.000000e+00
    outer loop
      vertex   1.410000e-02 1.472328e-03 -2.596112e-04
      vertex   1.410000e-02 7.900000e-03 -7.900000e-03
      vertex   1.410000e-02 1.495041e-03 -1.830898e-19
    endloop
  endfacet
  facet normal 1.000000e+00 -0.000000e+00 0.000000e+00
    outer loop
      vertex   1.410000e-02 1.495041e-03 -1.830898e-19
      vertex   1.410000e-02 7.900000e-03 -7.900000e-03
      vertex   1.410000e-02 7.900000e-03 7.900000e-03
    endloop
  endfacet
  facet normal 1.000000e+00 0.000000e+00 -0.000000e+00
    outer loop
      vertex   1.410000e-02 1.495041e-03 -1.830898e-19
      vertex   1.410000e-02 7.900000e-03 7.900000e-03
      vertex   1.410000e-02 1.472328e-03 2.596112e-04
    endloop
  endfacet
  facet normal 1.000000e+00 0.000000e+00 -0.000000e+00
    outer loop
      vertex   1.410000e-02 1.472328e-03 2.596112e-04
      vertex   1.410000e-02 7.900000e-03 7.900000e-03
      vertex   1.410000e-02 1.404879e-03 5.113343e-04
    endloop
  endfacet
  facet normal 1.000000e+00 0.000000e+00 -0.000000e+00
    outer loop
      vertex   1.410000e-02 1.404879e-03 5.113343e-04
      vertex   1.410000e-02 7.900000e-03 7.900000e-03
      vertex   1.410000e-02 1.294744e-03 7.475207e-04
    endloop
  endfacet
  facet normal 1.000000e+00 0.000000e+00 -0.000000e+00
    outer loop
      vertex   1.410000e-02 1.294744e-03 7.475207e-04
      vertex   1.410000e-02 7.900000e-03 7.900000e-03
      vertex   1.410000e-02 1.145268e-03 9.609941e-04
    endloop
  endfacet
  facet normal 1.000000e+00 0.000000e+00 -0.000000e+00
    outer loop
      vertex   1.410000e-02 1.145268e-03 9.609941e-04
      vertex   1.410000e-02 7.900000e-03 7.900000e-03
      vertex   1.410000e-02 9.609941e-04 1.145268e-03
    endloop
  endfacet
  facet normal 1.000000e+00 0.000000e+00 -0.000000e+00
    outer loop
      vertex   1.410000e-02 9.609941e-04 1.145268e-03
      vertex   1.410000e-02 7.900000e-03 7.900000e-03
      vertex   1.410000e-02 7.475207e-04 1.294744e-03
    endloop
  endfacet
  facet normal 1.000000e+00 0.000000e+00 -0.000000e+00
    outer loop
      vertex   1.410000e-02 7.475207e-04 1.294744e-03
      vertex   1.410000e-02 7.900000e-03 7.900000e-03
      vertex   1.410000e-02 5.113343e-04 1.404879e-03
    endloop
  endfacet
  facet normal 1.000000e+00 0.000000e+00 -0.000000e+00
    outer loop
      vertex   1.410000e-02 5.113343e-04 1.404879e-03
      vertex   1.410000e-02 7.900000e-03 7.900000e-03
      vertex   1.410000e-02 2.596112e-04 1.472328e-03
    endloop
  endfacet
  facet normal 1.000000e+00 0.000000e+00 -0.000000e+00
    outer loop
      vertex   1.410000e-02 2.596112e-04 1.472328e-03
      vertex   1.410000e-02 7.900000e-03 7.900000e-03
      vertex   1.410000e-02 -9.154488e-20 1.495041e-03
    endloop
  endfacet
  facet normal 1.000000e+00 0.000000e+00 -0.000000e+00
    outer loop
      vertex   1.410000e-02 -9.154488e-20 1.495041e-03
      vertex   1.410000e-02 7.900000e-03 7.900000e-03
      vertex   1.410000e-02 -7.900000e-03 7.900000e-03
    endloop
  endfacet
  facet normal 1.000000e+00 0.000000e+00 0.000000e+00
    outer loop
      vertex   1.410000e-02 -9.154488e-20 1.495041e-03
      vertex   1.410000e-02 -7.900000e-03 7.900000e-03
      vertex   1.410000e-02 -2.596112e-04 1.472328e-03
    endloop
  endfacet
  facet normal 1.000000e+00 0.000000e+00 0.000000e+00
    outer loop
      vertex   1.410000e-02 -2.596112e-04 1.472328e-03
      vertex   1.410000e-02 -7.900000e-03 7.900000e-03
      vertex   1.410000e-02 -5.113343e-04 1.404879e-03
    endloop
  endfacet
  facet normal 1.000000e+00 0.000000e+00 0.000000e+00
    outer loop
      vertex   1.410000e-02 -5.113343e-04 1.404879e-03
      vertex   1.410000e-02 -7.900000e-03 7.900000e-03
      vertex   1.410000e-02 -7.475207e-04 1.294744e-03
    endloop
  endfacet
  facet normal 1.000000e+00 0.000000e+00 0.000000e+00
    outer loop
      vertex   1.410000e-02 -7.475207e-04 1.294744e-03
      vertex   1.410000e-02 -7.900000e-03 7.900000e-03
      vertex   1.410000e-02 -9.609941e-04 1.145268e-03
    endloop
  endfacet
  facet normal 1.000000e+00 0.000000e+00 0.000000e+00
    outer loop
      vertex   1.410000e-02 -9.609941e-04 1.145268e-03
      vertex   1.410000e-02 -7.900000e-03 7.900000e-03
      vertex   1.410000e-02 -1.145268e-03 9.609941e-04
    endloop
  endfacet
  facet normal 1.000000e+00 0.000000e+00 0.000000e+00
    outer loop
      vertex   1.410000e-02 -1.145268e-03 9.609941e-04
      vertex   1.410000e-02 -7.900000e-03 7.900000e-03
      vertex   1.410000e-02 -1.294744e-03 7.475207e-04
    endloop
  endfacet
  facet normal 1.000000e+00 0.000000e+00 0.000000e+00
    outer loop
      vertex   1.410000e-02 -1.294744e-03 7.475207e-04
      vertex   1.410000e-02 -7.900000e-03 7.900000e-03
      vertex   1.410000e-02 -1.404879e-03 5.113343e-04
    endloop
  endfacet
  facet normal 1.000000e+00 0.000000e+00 0.000000e+00
    outer loop
      vertex   1.410000e-02 -1.404879e-03 5.113343e-04
      vertex   1.410000e-02 -7.900000e-03 7.900000e-03
      vertex   1.410000e-02 -1.472328e-03 2.596112e-04
    endloop
  endfacet
  facet normal 1.000000e+00 0.000000e+00 0.000000e+00
    outer loop
      vertex   1.410000e-02 -1.472328e-03 2.596112e-04
      vertex   1.410000e-02 -7.900000e-03 7.900000e-03
      vertex   1.410000e-02 -1.495041e-03 0.000000e+00
    endloop
  endfacet
  facet normal 1.000000e+00 0.000000e+00 0.000000e+00
    outer loop
      vertex   1.410000e-02 -1.495041e-03 0.000000e+00
      vertex   1.410000e-02 -7.900000e-03 7.900000e-03
      vertex   1.410000e-02 -7.900000e-03 -7.900000e-03
    endloop
  endfacet
  facet normal 1.000000e+00 0.000000e+00 0.000000e+00
    outer loop
      vertex   1.410000e-02 -1.495041e-03 0.000000e+00
      vertex   1.410000e-02 -7.900000e-03 -7.900000e-03
      vertex   1.410000e-02 -1.472328e-03 -2.596112e-04
    endloop
  endfacet
  facet normal 1.000000e+00 0.000000e+00 0.000000e+00
    outer loop
      vertex   1.410000e-02 -1.472328e-03 -2.596112e-04
      vertex   1.410000e-02 -7.900000e-03 -7.900000e-03
      vertex   1.410000e-02 -1.404879e-03 -5.113343e-04
    endloop
  endfacet
  facet normal 1.000000e+00 0.000000e+00 0.000000e+00
    outer loop
      vertex   1.410000e-02 -1.404879e-03 -5.113343e-04
      vertex   1.410000e-02 -7.900000e-03 -7.900000e-03
      vertex   1.410000e-02 -1.294744e-03 -7.475207e-04
    endloop
  endfacet
  facet normal 1.000000e+00 0.000000e+00 0.000000e+00
    outer loop
      vertex   1.410000e-02 -1.294744e-03 -7.475207e-04
      vertex   1.410000e-02 -7.900000e-03 -7.900000e-03
      vertex   1.410000e-02 -1.145268e-03 -9.609941e-04
    endloop
  endfacet
  facet normal 1.000000e+00 0.000000e+00 0.000000e+00
    outer loop
      vertex   1.410000e-02 -1.145268e-03 -9.609941e-04
      vertex   1.410000e-02 -7.900000e-03 -7.900000e-03
      vertex   1.410000e-02 -9.609941e-04 -1.145268e-03
    endloop
  endfacet
  facet normal 1.000000e+00 0.000000e+00 0.000000e+00
    outer loop
      vertex   1.410000e-02 -9.609941e-04 -1.145268e-03
      vertex   1.410000e-02 -7.900000e-03 -7.900000e-03
      vertex   1.410000e-02 -7.475207e-04 -1.294744e-03
    endloop
  endfacet
  facet normal 1.000000e+00 0.000000e+00 0.000000e+00
    outer loop
      vertex   1.410000e-02 -7.475207e-04 -1.294744e-03
      vertex   1.410000e-02 -7.900000e-03 -7.900000e-03
      vertex   1.410000e-02 -5.113343e-04 -1.404879e-03
    endloop
  endfacet
  facet normal 1.000000e+00 0.000000e+00 0.000000e+00
    outer loop
      vertex   1.410000e-02 -5.113343e-04 -1.404879e-03
      vertex   1.410000e-02 -7.900000e-03 -7.900000e-03
      vertex   1.410000e-02 -2.596112e-04 -1.472328e-03
    endloop
  endfacet
  facet normal 1.000000e+00 0.000000e+00 0.000000e+00
    outer loop
      vertex   1.410000e-02 -2.596112e-04 -1.472328e-03
      vertex   1.410000e-02 -7.900000e-03 -7.900000e-03
      vertex   1.410000e-02 -9.154488e-20 -1.495041e-03
    endloop
  endfacet
  facet normal 1.000000e+00 0.000000e+00 0.000000e+00
    outer loop
      vertex   1.410000e-02 -9.154488e-20 -1.495041e-03
      vertex   1.410000e-02 -7.900000e-03 -7.900000e-03
      vertex   1.410000e-02 7.900000e-03 -7.900000e-03
    endloop
  endfacet
  facet normal 1.000000e+00 -0.000000e+00 0.000000e+00
    outer loop
      vertex   1.410000e-02 -9.154488e-20 -1.495041e-03
      vertex   1.410000e-02 7.900000e-03 -7.900000e-03
      vertex   1.410000e-02 2.596112e-04 -1.472328e-03
    endloop
  endfacet
  facet normal 1.000000e+00 -0.000000e+00 0.000000e+00
    outer loop
      vertex   1.410000e-02 2.596112e-04 -1.472328e-03
      vertex   1.410000e-02 7.900000e-03 -7.900000e-03
      vertex   1.410000e-02 5.113343e-04 -1.404879e-03
    endloop
  endfacet
  facet normal 1.000000e+00 -0.000000e+00 0.000000e+00
    outer loop
      vertex   1.410000e-02 5.113343e-04 -1.404879e-03
      vertex   1.410000e-02 7.900000e-03 -7.900000e-03
      vertex   1.410000e-02 7.475207e-04 -1.294744e-03
    endloop
  endfacet
  facet normal 1.000000e+00 -0.000000e+00 0.000000e+00
    outer loop
      vertex   1.410000e-02 7.475207e-04 -1.294744e-03
      vertex   1.410000e-02 7.900000e-03 -7.900000e-03
      vertex   1.410000e-02 9.609941e-04 -1.145268e-03
    endloop
  endfacet
  facet normal 1.000000e+00 -0.000000e+00 0.000000e+00
    outer loop
      vertex   1.410000e-02 9.609941e-04 -1.145268e-03
      vertex   1.410000e-02 7.900000e-03 -7.900000e-03
      vertex   1.410000e-02 1.145268e-03 -9.609941e-04
    endloop
  endfacet
  facet normal 1.000000e+00 -0.000000e+00 0.000000e+00
    outer loop
      vertex   1.410000e-02 1.145268e-03 -9.609941e-04
      vertex   1.410000e-02 7.900000e-03 -7.900000e-03
      vertex   1.410000e-02 1.294744e-03 -7.475207e-04
    endloop
  endfacet
  facet normal 1.000000e+00 -0.000000e+00 0.000000e+00
    outer loop
      vertex   1.410000e-02 1.294744e-03 -7.475207e-04
      vertex   1.410000e-02 7.900000e-03 -7.900000e-03
      vertex   1.410000e-02 1.404879e-03 -5.113343e-04
    endloop
  endfacet
  facet normal 1.000000e+00 -0.000000e+00 0.000000e+00
    outer loop
      vertex   1.410000e-02 1.404879e-03 -5.113343e-04
      vertex   1.410000e-02 7.900000e-03 -7.900000e-03
      vertex   1.410000e-02 1.472328e-03 -2.596112e-04
    endloop
  endfacet
  facet normal 0.000000e+00 -1.000000e+00 0.000000e+00
    outer loop
      vertex   1.410000e-02 7.900000e-03 7.900000e-03
      vertex   1.410000e-02 7.900000e-03 -7.900000e-03
      vertex   2.990000e-02 7.900000e-03 7.900000e-03
    endloop
  endfacet
  facet normal 0.000000e+00 -1.000000e+00 -0.000000e+00
    outer loop
      vertex   2.990000e-02 7.900000e-03 7.900000e-03
      vertex   1.410000e-02 7.900000e-03 -7.900000e-03
      vertex   2.990000e-02 7.900000e-03 -7.900000e-03
    endloop
  endfacet
  facet normal 0.000000e+00 -1.000000e+00 0.000000e+00
    outer loop
      vertex   1.400000e-02 -8.000000e-03 8.000000e-03
      vertex   1.400000e-02 -8.000000e-03 -8.000000e-03
      vertex   3.000000e-02 -8.000000e-03 8.000000e-03
    endloop
  endfacet
  facet normal 0.000000e+00 -1.000000e+00 -0.000000e+00
    outer loop
      vertex   3.000000e-02 -8.000000e-03 8.000000e-03
      vertex   1.400000e-02 -8.000000e-03 -8.000000e-03
      vertex   3.000000e-02 -8.000000e-03 -8.000000e-03
    endloop
  endfacet
  facet normal 0.000000e+00 0.000000e+00 -1.000000e+00
    outer loop
      vertex   1.400000e-02 8.000000e-03 -8.000000e-03
      vertex   3.000000e-02 8.000000e-03 -8.000000e-03
      vertex   1.400000e-02 -8.000000e-03 -8.000000e-03
    endloop
  endfacet
  facet normal 0.000000e+00 0.000000e+00 -1.000000e+00
    outer loop
      vertex   1.400000e-02 -8.000000e-03 -8.000000e-03
      vertex   3.000000e-02 8.000000e-03 -8.000000e-03
      vertex   3.000000e-02 -8.000000e-03 -8.000000e-03
    endloop
  endfacet
  facet normal 1.000000e+00 0.000000e+00 -0.000000e+00
    outer loop
      vertex   3.000000e-02 8.000000e-03 -8.000000e-03
      vertex   3.000000e-02 8.000000e-03 8.000000e-03
      vertex   3.000000e-02 -8.000000e-03 -8.000000e-03
    endloop
  endfacet
  facet normal 1.000000e+00 0.000000e+00 0.000000e+00
    outer loop
      vertex   3.000000e-02 -8.000000e-03 -8.000000e-03
      vertex   3.000000e-02 8.000000e-03 8.000000e-03
      vertex   3.000000e-02 -8.000000e-03 8.000000e-03
    endloop
  endfacet
  facet normal 0.000000e+00 0.000000e+00 1.000000e+00
    outer loop
      vertex   3.000000e-02 8.000000e-03 8.000000e-03
      vertex   1.400000e-02 8.000000e-03 8.000000e-03
      vertex   3.000000e-02 -8.000000e-03 8.000000e-03
    endloop
  endfacet
  facet normal 0.000000e+00 0.000000e+00 1.000000e+00
    outer loop
      vertex   3.000000e-02 -8.000000e-03 8.000000e-03
      vertex   1.400000e-02 8.000000e-03 8.000000e-03
      vertex   1.400000e-02 -8.000000e-03 8.000000e-03
    endloop
  endfacet
  facet normal -1.000000e+00 0.000000e+00 0.000000e+00
    outer loop
      vertex   1.400000e-02 1.472328e-03 2.596112e-04
      vertex   1.400000e-02 8.000000e-03 8.000000e-03
      vertex   1.400000e-02 1.495041e-03 -1.830898e-19
    endloop
  endfacet
  facet normal -1.000000e+00 0.000000e+00 0.000000e+00
    outer loop
      vertex   1.400000e-02 1.495041e-03 -1.830898e-19
      vertex   1.400000e-02 8.000000e-03 8.000000e-03
      vertex   1.400000e-02 8.000000e-03 -8.000000e-03
    endloop
  endfacet
  facet normal -1.000000e+00 0.000000e+00 -0.000000e+00
    outer loop
      vertex   1.400000e-02 1.495041e-03 -1.830898e-19
      vertex   1.400000e-02 8.000000e-03 -8.000000e-03
      vertex   1.400000e-02 1.472328e-03 -2.596112e-04
    endloop
  endfacet
  facet normal -1.000000e+00 0.000000e+00 -0.000000e+00
    outer loop
      vertex   1.400000e-02 1.472328e-03 -2.596112e-04
      vertex   1.400000e-02 8.000000e-03 -8.000000e-03
      vertex   1.400000e-02 1.404879e-03 -5.113343e-04
    endloop
  endfacet
  facet normal -1.000000e+00 0.000000e+00 -0.000000e+00
    outer loop
      vertex   1.400000e-02 1.404879e-03 -5.113343e-04
      vertex   1.400000e-02 8.000000e-03 -8.000000e-03
      vertex   1.400000e-02 1.294744e-03 -7.475207e-04
    endloop
  endfacet
  facet normal -1.000000e+00 0.000000e+00 -0.000000e+00
    outer loop
      vertex   1.400000e-02 1.294744e-03 -7.475207e-04
      vertex   1.400000e-02 8.000000e-03 -8.000000e-03
      vertex   1.400000e-02 1.145268e-03 -9.609941e-04
    endloop
  endfacet
  facet normal -1.000000e+00 0.000000e+00 -0.000000e+00
    outer loop
      vertex   1.400000e-02 1.145268e-03 -9.609941e-04
      vertex   1.400000e-02 8.000000e-03 -8.000000e-03
      vertex   1.400000e-02 9.609941e-04 -1.145268e-03
    endloop
  endfacet
  facet normal -1.000000e+00 0.000000e+00 -0.000000e+00
    outer loop
      vertex   1.400000e-02 9.609941e-04 -1.145268e-03
      vertex   1.400000e-02 8.000000e-03 -8.000000e-03
      vertex   1.400000e-02 7.475207e-04 -1.294744e-03
    endloop
  endfacet
  facet normal -1.000000e+00 0.000000e+00 -0.000000e+00
    outer loop
      vertex   1.400000e-02 7.475207e-04 -1.294744e-03
      vertex   1.400000e-02 8.000000e-03 -8.000000e-03
      vertex   1.400000e-02 5.113343e-04 -1.404879e-03
    endloop
  endfacet
  facet normal -1.000000e+00 0.000000e+00 -0.000000e+00
    outer loop
      vertex   1.400000e-02 5.113343e-04 -1.404879e-03
      vertex   1.400000e-02 8.000000e-03 -8.000000e-03
      vertex   1.400000e-02 2.596112e-04 -1.472328e-03
    endloop
  endfacet
  facet normal -1.000000e+00 0.000000e+00 -0.000000e+00
    outer loop
      vertex   1.400000e-02 2.596112e-04 -1.472328e-03
      vertex   1.400000e-02 8.000000e-03 -8.000000e-03
      vertex   1.400000e-02 -9.154488e-20 -1.495041e-03
    endloop
  endfacet
  facet normal -1.000000e+00 0.000000e+00 -0.000000e+00
    outer loop
      vertex   1.400000e-02 -9.154488e-20 -1.495041e-03
      vertex   1.400000e-02 8.000000e-03 -8.000000e-03
      vertex   1.400000e-02 -8.000000e-03 -8.000000e-03
    endloop
  endfacet
  facet normal -1.000000e+00 -0.000000e+00 0.000000e+00
    outer loop
      vertex   1.400000e-02 -9.154488e-20 -1.495041e-03
      vertex   1.400000e-02 -8.000000e-03 -8.000000e-03
      vertex   1.400000e-02 -2.596112e-04 -1.472328e-03
    endloop
  endfacet
  facet normal -1.000000e+00 -0.000000e+00 0.000000e+00
    outer loop
      vertex   1.400000e-02 -2.596112e-04 -1.472328e-03
      vertex   1.400000e-02 -8.000000e-03 -8.000000e-03
      vertex   1.400000e-02 -5.113343e-04 -1.404879e-03
    endloop
  endfacet
  facet normal -1.000000e+00 -0.000000e+00 0.000000e+00
    outer loop
      vertex   1.400000e-02 -5.113343e-04 -1.404879e-03
      vertex   1.400000e-02 -8.000000e-03 -8.000000e-03
      vertex   1.400000e-02 -7.475207e-04 -1.294744e-03
    endloop
  endfacet
  facet normal -1.000000e+00 -0.000000e+00 0.000000e+00
    outer loop
      vertex   1.400000e-02 -7.475207e-04 -1.294744e-03
      vertex   1.400000e-02 -8.000000e-03 -8.000000e-03
      vertex   1.400000e-02 -9.609941e-04 -1.145268e-03
    endloop
  endfacet
  facet normal -1.000000e+00 -0.000000e+00 0.000000e+00
    outer loop
      vertex   1.400000e-02 -9.609941e-04 -1.145268e-03
      vertex   1.400000e-02 -8.000000e-03 -8.000000e-03
      vertex   1.400000e-02 -1.145268e-03 -9.609941e-04
    endloop
  endfacet
  facet normal -1.000000e+00 -0.000000e+00 0.000000e+00
    outer loop
      vertex   1.400000e-02 -1.145268e-03 -9.609941e-04
      vertex   1.400000e-02 -8.000000e-03 -8.000000e-03
      vertex   1.400000e-02 -1.294744e-03 -7.475207e-04
    endloop
  endfacet
  facet normal -1.000000e+00 -0.000000e+00 0.000000e+00
    outer loop
      vertex   1.400000e-02 -1.294744e-03 -7.475207e-04
      vertex   1.400000e-02 -8.000000e-03 -8.000000e-03
      vertex   1.400000e-02 -1.404879e-03 -5.113343e-04
    endloop
  endfacet
  facet normal -1.000000e+00 -0.000000e+00 0.000000e+00
    outer loop
      vertex   1.400000e-02 -1.404879e-03 -5.113343e-04
      vertex   1.400000e-02 -8.000000e-03 -8.000000e-03
      vertex   1.400000e-02 -1.472328e-03 -2.596112e-04
    endloop
  endfacet
  facet normal -1.000000e+00 -0.000000e+00 0.000000e+00
    outer loop
      vertex   1.400000e-02 -1.472328e-03 -2.596112e-04
      vertex   1.400000e-02 -8.000000e-03 -8.000000e-03
      vertex   1.400000e-02 -1.495041e-03 0.000000e+00
    endloop
  endfacet
  facet normal -1.000000e+00 -0.000000e+00 0.000000e+00
    outer loop
      vertex   1.400000e-02 -1.495041e-03 0.000000e+00
      vertex   1.400000e-02 -8.000000e-03 -8.000000e-03
      vertex   1.400000e-02 -8.000000e-03 8.000000e-03
    endloop
  endfacet
  facet normal -1.000000e+00 0.000000e+00 0.000000e+00
    outer loop
      vertex   1.400000e-02 -1.495041e-03 0.000000e+00
      vertex   1.400000e-02 -8.000000e-03 8.000000e-03
      vertex   1.400000e-02 -1.472328e-03 2.596112e-04
    endloop
  endfacet
  facet normal -1.000000e+00 0.000000e+00 0.000000e+00
    outer loop
      vertex   1.400000e-02 -1.472328e-03 2.596112e-04
      vertex   1.400000e-02 -8.000000e-03 8.000000e-03
      vertex   1.400000e-02 -1.404879e-03 5.113343e-04
    endloop
  endfacet
  facet normal -1.000000e+00 0.000000e+00 0.000000e+00
    outer loop
      vertex   1.400000e-02 -1.404879e-03 5.113343e-04
      vertex   1.400000e-02 -8.000000e-03 8.000000e-03
      vertex   1.400000e-02 -1.294744e-03 7.475207e-04
    endloop
  endfacet
  facet normal -1.000000e+00 0.000000e+00 0.000000e+00
    outer loop
      vertex   1.400000e-02 -1.294744e-03 7.475207e-04
      vertex   1.400000e-02 -8.000000e-03 8.000000e-03
      vertex   1.400000e-02 -1.145268e-03 9.609941e-04
    endloop
  endfacet
  facet normal -1.000000e+00 0.000000e+00 0.000000e+00
    outer loop
      vertex   1.400000e-02 -1.145268e-03 9.609941e-04
      vertex   1.400000e-02 -8.000000e-03 8.000000e-03
      vertex   1.400000e-02 -9.609941e-04 1.145268e-03
    endloop
  endfacet
  facet normal -1.000000e+00 0.000000e+00 0.000000e+00
    outer loop
      vertex   1.400000e-02 -9.609941e-04 1.145268e-03
      vertex   1.400000e-02 -8.000000e-03 8.000000e-03
      vertex   1.400000e-02 -7.475207e-04 1.294744e-03
    endloop
  endfacet
  facet normal -1.000000e+00 0.000000e+00 0.000000e+00
    outer loop
      vertex   1.400000e-02 -7.475207e-04 1.294744e-03
      vertex   1.400000e-02 -8.000000e-03 8.000000e-03
      vertex   1.400000e-02 -5.113343e-04 1.404879e-03
    endloop
  endfacet
  facet normal -1.000000e+00 0.000000e+00 0.000000e+00
    outer loop
      vertex   1.400000e-02 -5.113343e-04 1.404879e-03
      vertex   1.400000e-02 -8.000000e-03 8.000000e-03
      vertex   1.400000e-02 -2.596112e-04 1.472328e-03
    endloop
  endfacet
  facet normal -1.000000e+00 0.000000e+00 0.000000e+00
    outer loop
      vertex   1.400000e-02 -2.596112e-04 1.472328e-03
      vertex   1.400000e-02 -8.000000e-03 8.000000e-03
      vertex   1.400000e-02 -9.154488e-20 1.495041e-03
    endloop
  endfacet
  facet normal -1.000000e+00 0.000000e+00 0.000000e+00
    outer loop
      vertex   1.400000e-02 -9.154488e-20 1.495041e-03
      vertex   1.400000e-02 -8.000000e-03 8.000000e-03
      vertex   1.400000e-02 8.000000e-03 8.000000e-03
    endloop
  endfacet
  facet normal -1.000000e+00 0.000000e+00 0.000000e+00
    outer loop
      vertex   1.400000e-02 -9.154488e-20 1.495041e-03
      vertex   1.400000e-02 8.000000e-03 8.000000e-03
      vertex   1.400000e-02 2.596112e-04 1.472328e-03
    endloop
  endfacet
  facet normal -1.000000e+00 0.000000e+00 0.000000e+00
    outer loop
      vertex   1.400000e-02 2.596112e-04 1.472328e-03
      vertex   1.400000e-02 8.000000e-03 8.000000e-03
      vertex   1.400000e-02 5.113343e-04 1.404879e-03
    endloop
  endfacet
  facet normal -1.000000e+00 0.000000e+00 0.000000e+00
    outer loop
      vertex   1.400000e-02 5.113343e-04 1.404879e-03
      vertex   1.400000e-02 8.000000e-03 8.000000e-03
      vertex   1.400000e-02 7.475207e-04 1.294744e-03
    endloop
  endfacet
  facet normal -1.000000e+00 0.000000e+00 0.000000e+00
    outer loop
      vertex   1.400000e-02 7.475207e-04 1.294744e-03
      vertex   1.400000e-02 8.000000e-03 8.000000e-03
      vertex   1.400000e-02 9.609941e-04 1.145268e-03
    endloop
  endfacet
  facet normal -1.000000e+00 0.000000e+00 0.000000e+00
    outer loop
      vertex   1.400000e-02 9.609941e-04 1.145268e-03
      vertex   1.400000e-02 8.000000e-03 8.000000e-03
      vertex   1.400000e-02 1.145268e-03 9.609941e-04
    endloop
  endfacet
  facet normal -1.000000e+00 0.000000e+00 0.000000e+00
    outer loop
      vertex   1.400000e-02 1.145268e-03 9.609941e-04
      vertex   1.400000e-02 8.000000e-03 8.000000e-03
      vertex   1.400000e-02 1.294744e-03 7.475207e-04
    endloop
  endfacet
  facet normal -1.000000e+00 0.000000e+00 0.000000e+00
    outer loop
      vertex   1.400000e-02 1.294744e-03 7.475207e-04
      vertex   1.400000e-02 8.000000e-03 8.000000e-03
      vertex   1.400000e-02 1.404879e-03 5.113343e-04
    endloop
  endfacet
  facet normal -1.000000e+00 0.000000e+00 0.000000e+00
    outer loop
      vertex   1.400000e-02 1.404879e-03 5.113343e-04
      vertex   1.400000e-02 8.000000e-03 8.000000e-03
      vertex   1.400000e-02 1.472328e-03 2.596112e-04
    endloop
  endfacet
  facet normal 0.000000e+00 1.000000e+00 0.000000e+00
    outer loop
      vertex   1.400000e-02 8.000000e-03 -8.000000e-03
      vertex   1.400000e-02 8.000000e-03 8.000000e-03
      vertex   3.000000e-02 8.000000e-03 -8.000000e-03
    endloop
  endfacet
  facet normal 0.000000e+00 1.000000e+00 -0.000000e+00
    outer loop
      vertex   3.000000e-02 8.000000e-03 -8.000000e-03
      vertex   1.400000e-02 8.000000e-03 8.000000e-03
      vertex   3.000000e-02 8.000000e-03 8.000000e-03
    endloop
  endfacet
endsolid
