solid ASCII
  facet normal 0.000000e+00 -1.000000e+00 0.000000e+00
    outer loop
      vertex   1.400000e-02 -8.000000e-03 8.000000e-03
      vertex   1.400000e-02 -8.000000e-03 -8.000000e-03
      vertex   3.000000e-02 -8.000000e-03 8.000000e-03
    endloop
  endfacet
  facet normal 0.000000e+00 -1.000000e+00 0.000000e+00
    outer loop
      vertex   3.000000e-02 -8.000000e-03 8.000000e-03
      vertex   1.400000e-02 -8.000000e-03 -8.000000e-03
      vertex   3.000000e-02 -8.000000e-03 -8.000000e-03
    endloop
  endfacet
  facet normal 0.000000e+00 0.000000e+00 -1.000000e+00
    outer loop
      vertex   1.400000e-02 8.000000e-03 -8.000000e-03
      vertex   3.000000e-02 8.000000e-03 -8.000000e-03
      vertex   1.400000e-02 -8.000000e-03 -8.000000e-03
    endloop
  endfacet
  facet normal 0.000000e+00 0.000000e+00 -1.000000e+00
    outer loop
      vertex   1.400000e-02 -8.000000e-03 -8.000000e-03
      vertex   3.000000e-02 8.000000e-03 -8.000000e-03
      vertex   3.000000e-02 -8.000000e-03 -8.000000e-03
    endloop
  endfacet
  facet normal 1.000000e+00 0.000000e+00 -4.336809e-16
    outer loop
      vertex   3.000000e-02 8.000000e-03 -8.000000e-03
      vertex   3.000000e-02 8.000000e-03 8.000000e-03
      vertex   3.000000e-02 -8.000000e-03 -8.000000e-03
    endloop
  endfacet
  facet normal 1.000000e+00 0.000000e+00 -4.336809e-16
    outer loop
      vertex   3.000000e-02 -8.000000e-03 -8.000000e-03
      vertex   3.000000e-02 8.000000e-03 8.000000e-03
      vertex   3.000000e-02 -8.000000e-03 8.000000e-03
    endloop
  endfacet
  facet normal 2.168404e-16 0.000000e+00 1.000000e+00
    outer loop
      vertex   3.000000e-02 8.000000e-03 8.000000e-03
      vertex   1.400000e-02 8.000000e-03 8.000000e-03
      vertex   3.000000e-02 -8.000000e-03 8.000000e-03
    endloop
  endfacet
  facet normal 2.168404e-16 0.000000e+00 1.000000e+00
    outer loop
      vertex   3.000000e-02 -8.000000e-03 8.000000e-03
      vertex   1.400000e-02 8.000000e-03 8.000000e-03
      vertex   1.400000e-02 -8.000000e-03 8.000000e-03
    endloop
  endfacet
  facet normal -1.000000e+00 -0.000000e+00 -0.000000e+00
    outer loop
      vertex   1.400000e-02 8.000000e-03 8.000000e-03
      vertex   1.400000e-02 8.000000e-03 -8.000000e-03
      vertex   1.400000e-02 -8.000000e-03 8.000000e-03
    endloop
  endfacet
  facet normal -1.000000e+00 0.000000e+00 0.000000e+00
    outer loop
      vertex   1.400000e-02 -8.000000e-03 8.000000e-03
      vertex   1.400000e-02 8.000000e-03 -8.000000e-03
      vertex   1.400000e-02 -8.000000e-03 -8.000000e-03
    endloop
  endfacet
  facet normal 0.000000e+00 1.000000e+00 0.000000e+00
    outer loop
      vertex   1.400000e-02 8.000000e-03 -8.000000e-03
      vertex   1.400000e-02 8.000000e-03 8.000000e-03
      vertex   3.000000e-02 8.000000e-03 -8.000000e-03
    endloop
  endfacet
  facet normal 0.000000e+00 1.000000e+00 -0.000000e+00
    outer loop
      vertex   3.000000e-02 8.000000e-03 -8.000000e-03
      vertex   1.400000e-02 8.000000e-03 8.000000e-03
      vertex   3.000000e-02 8.000000e-03 8.000000e-03
    endloop
  endfacet
endsolid
